# xmcd
#
# Track frame offsets:
#	150
#	17619
#	40583
#	56376
#	72003
#	89147
#	105593
#	133204
#	149724
#	172298
#	192491
#	208729
#
# Disc length: 3104 seconds
#
# Revision: 1
# Processed by: cddbd v1.4PL0 Copyright (c) Steve Scherf et al.
# Submitted via: audiograbber 1.80
#
DISCID=b80c1e0c
DTITLE=Led Zeppelin - Pickin' On Zeppelin  
DYEAR=1900
DGENRE=
TTITLE0=D'yer Mak'er
TTITLE1=Kashmir
TTITLE2=Ramble On
TTITLE3=Black Dog
TTITLE4=Babe, I'm Gonna Leave You
TTITLE5=Going To California
TTITLE6=No Quarter
TTITLE7=The Song Remains The Same
TTITLE8=All My Love
TTITLE9=The Battle Of Evermore
TTITLE10=Rock And Roll 
TTITLE11=Stairway To Heaven 
EXTD=
EXTT0=
EXTT1=
EXTT2=
EXTT3=
EXTT4=
EXTT5=
EXTT6=
EXTT7=
EXTT8=
EXTT9=
EXTT10=
EXTT11=
PLAYORDER=
